<svg xmlns="http://www.w3.org/2000/svg" width="144.501" height="154.518" viewBox="0 0 144.501 154.518">
  <g id="Group_5" data-name="Group 5" transform="translate(20.351 -5.453) rotate(13)">
    <g id="Group_3" data-name="Group 3" transform="translate(39.71 46.33) rotate(-13)">
      <line id="Line_1" data-name="Line 1" y2="29.603" transform="translate(29.603 14.802) rotate(90)" fill="none" stroke="#ddd" stroke-linecap="round" stroke-width="7"/>
      <line id="Line_2" data-name="Line 2" y2="29.603" transform="translate(14.802 0)" fill="none" stroke="#ddd" stroke-linecap="round" stroke-width="7"/>
    </g>
    <g id="Group_10" data-name="Group 10" transform="translate(0 0)" style="isolation: isolate">
      <path id="Rectangle_3" data-name="Rectangle 3" d="M0,0H69.7a10,10,0,0,1,10,10v.495a10,10,0,0,1-10,10H0a0,0,0,0,1,0,0V0A0,0,0,0,1,0,0Z" transform="translate(90.338 67.142) rotate(37)" fill="#5e9eff"/>
      <g id="Group_4" data-name="Group 4" transform="translate(0 0)">
        <path id="Union_3" data-name="Union 3" d="M46.523,93.66a46.225,46.225,0,0,1-32.9-13.716,46.991,46.991,0,0,1,0-66.228A46.553,46.553,0,0,1,93.046,46.83,46.842,46.842,0,0,1,64.632,89.98,45.97,45.97,0,0,1,46.523,93.66Zm0-75.876A29.047,29.047,0,1,0,75.379,46.83,28.984,28.984,0,0,0,46.523,17.784Z" transform="matrix(0.966, 0.259, -0.259, 0.966, 24.241, 0)" fill="#5e9eff" style="mix-blend-mode: darken;isolation: isolate"/>
      </g>
    </g>
  </g>
</svg>
